<svg xmlns="http://www.w3.org/2000/svg" width="59.2" height="59.2" viewBox="0 0 59.2 59.2"><defs><style>.a{fill:#0046f5;stroke:#2b313e;stroke-width:4px;}.b{fill:#fff;}</style></defs><g transform="translate(-157.8 -93.8)"><g transform="translate(116 -203)"><g transform="translate(70.8 265.8)"><path class="a" d="M27.6,0A27.6,27.6,0,1,1,0,27.6,27.6,27.6,0,0,1,27.6,0Z" transform="translate(-27 33)"/></g></g><g transform="translate(170.46 110.8)"><path class="b" d="M48.825,26.95A5.125,5.125,0,1,0,43.7,21.825,5.122,5.122,0,0,0,48.825,26.95Zm0-8.766a3.668,3.668,0,1,1-3.668,3.668A3.672,3.672,0,0,1,48.825,18.183Z" transform="translate(-31.913 -12.196)"/><path class="b" d="M30.4,20.526H27.512C29.13,17.91,33.581,10.384,33.581,7.2a7.218,7.218,0,0,0-7.2-7.2,7.036,7.036,0,0,0-4.72,1.78,9.144,9.144,0,0,0-9.6.081A7.219,7.219,0,0,0,0,7.2c0,3.21,4.45,10.708,6.069,13.324H3.641a.728.728,0,1,0,0,1.457H9.467a.728.728,0,1,0,0-1.457H8.307c.459-.728,1.187-1.915,1.942-3.264a114.617,114.617,0,0,0,5.988,10.681H12.353a.728.728,0,1,0,0,1.457h8.793a.728.728,0,1,0,0-1.457H17.613c.539-.863,3.56-5.691,5.853-10.411.728,1.268,1.376,2.347,1.78,3.021H23.925a.728.728,0,0,0,0,1.457h6.446a.742.742,0,0,0,.027-1.483ZM24.653,9.656c0,3.372-5.125,12.38-7.741,16.642C14.3,22.036,9.171,13.028,9.171,9.656a7.741,7.741,0,0,1,15.482,0Zm.216-4.612a2.719,2.719,0,0,1,1.51-.486,2.643,2.643,0,1,1,0,5.287.918.918,0,0,1-.27-.027V9.656A9.139,9.139,0,0,0,24.869,5.044ZM7.741,9.656v.135a3.32,3.32,0,0,1-.539.054A2.643,2.643,0,1,1,8.9,5.179,9,9,0,0,0,7.741,9.656ZM7.2,19.582c-2.05-3.318-5.745-9.9-5.745-12.38a5.751,5.751,0,0,1,9.386-4.45,9.827,9.827,0,0,0-1.16,1.214A4.151,4.151,0,0,0,7.175,3.1a4.086,4.086,0,1,0,0,8.173,3.348,3.348,0,0,0,.728-.081,26.54,26.54,0,0,0,1.564,4.4C8.631,17.235,7.741,18.692,7.2,19.582Zm18.692-8.334a2.932,2.932,0,0,0,.486.027,4.086,4.086,0,1,0,0-8.173,4.3,4.3,0,0,0-2.347.728,9.665,9.665,0,0,0-1.16-1.187,5.62,5.62,0,0,1,3.506-1.187A5.75,5.75,0,0,1,32.124,7.2c0,2.481-3.722,9.063-5.745,12.38-.512-.863-1.322-2.212-2.158-3.7A26.623,26.623,0,0,0,25.893,11.247Z"/></g></g></svg>