<svg xmlns="http://www.w3.org/2000/svg" width="16" height="15.005" viewBox="0 0 16 15.005"><defs><style>.a{fill:#709be7;}</style></defs><path class="a" d="M139.5,286h-4.493L133,288.005,130.993,286H126.5a1.5,1.5,0,0,1-1.5-1.5v-10a1.5,1.5,0,0,1,1.5-1.5h13a1.5,1.5,0,0,1,1.5,1.5v10A1.5,1.5,0,0,1,139.5,286Zm.5-11.5a.5.5,0,0,0-.5-.5h-13a.5.5,0,0,0-.5.5v10a.5.5,0,0,0,.5.5h4.995L133,286.506,134.505,285H139.5a.5.5,0,0,0,.5-.5Zm-3,5.5a1,1,0,1,1,1-1A1,1,0,0,1,137,280Zm-4,0a1,1,0,1,1,1-1A1,1,0,0,1,133,280Zm-4,0a1,1,0,1,1,1-1A1,1,0,0,1,129,280Z" transform="translate(-125 -273)"/></svg>