<svg xmlns="http://www.w3.org/2000/svg" width="145" height="145" viewBox="0 0 145 145"><defs><style>.a{fill:#fff;fill-rule:evenodd;}</style></defs><path class="a" d="M62.228,106.064c-.057.063-.032.151-.088.208a3.006,3.006,0,0,1-4.268,0L57.8,106.2c-.057-.044-.151-.025-.2-.076s-.038-.151-.088-.208L32.245,80.645a3.018,3.018,0,1,1,4.268-4.268L59.643,99.5,107.85,51.292a3.234,3.234,0,0,1,4.57,4.577ZM72.5,6.311A66.183,66.183,0,1,0,138.683,72.5,66.186,66.186,0,0,0,72.5,6.311ZM72.5,145A72.5,72.5,0,1,1,145,72.5,72.5,72.5,0,0,1,72.5,145Z"/></svg>