<svg xmlns="http://www.w3.org/2000/svg" width="26.002" height="24" viewBox="0 0 26.002 24"><defs><style>.a{fill:#fff;stroke:#fff;}</style></defs><path class="a" d="M199.438,83H177.563A1.574,1.574,0,0,1,176,81.416V65.583A1.572,1.572,0,0,1,177.563,64h4.009l1.029-2.25s.716-1.75,1.6-1.75h8.6c.884,0,1.6,1.75,1.6,1.75L195.43,64h4.009A1.573,1.573,0,0,1,201,65.583V81.416A1.576,1.576,0,0,1,199.438,83ZM193.49,62.165A3.314,3.314,0,0,0,192.733,61h-8.467a3.244,3.244,0,0,0-.742,1.129L182.67,64h11.658ZM200,65.583a.574.574,0,0,0-.563-.583H177.562a.574.574,0,0,0-.563.583V81.416a.575.575,0,0,0,.563.584h21.875a.575.575,0,0,0,.563-.584ZM188.5,80a6.5,6.5,0,1,1,6.5-6.5A6.5,6.5,0,0,1,188.5,80Zm0-12a5.5,5.5,0,1,0,5.5,5.5A5.5,5.5,0,0,0,188.5,68Z" transform="translate(-175.5 -59.5)"/></svg>