<svg xmlns="http://www.w3.org/2000/svg" xmlns:xlink="http://www.w3.org/1999/xlink" width="66" height="66" viewBox="0 0 66 66"><defs><style>.a{fill:#0046f5;}.b{fill:#fff;}.c{filter:url(#a);}</style><filter id="a" x="0" y="0" width="66" height="66" filterUnits="userSpaceOnUse"><feOffset dy="3" input="SourceAlpha"/><feGaussianBlur stdDeviation="3" result="b"/><feFlood flood-opacity="0.161"/><feComposite operator="in" in2="b"/><feComposite in="SourceGraphic"/></filter></defs><g transform="translate(3 -719)"><g class="c" transform="matrix(1, 0, 0, 1, -3, 719)"><circle class="a" cx="24" cy="24" r="24" transform="translate(9 6)"/></g><path class="b" d="M145.827,27.827a.6.6,0,0,1-.842,0l-5.572-5.572a8.215,8.215,0,1,1,.842-.842l5.572,5.572A.6.6,0,0,1,145.827,27.827ZM141,16.127A6.877,6.877,0,1,0,134.127,23,6.878,6.878,0,0,0,141,16.127Z" transform="translate(-106.001 730.999)"/></g></svg>